<svg xmlns="http://www.w3.org/2000/svg" xml:space="preserve" width="680" height="140" style="shape-rendering:geometricPrecision;text-rendering:geometricPrecision;image-rendering:optimizeQuality;fill-rule:evenodd;clip-rule:evenodd">
  <path d="M551.37 42.29c-.32-.33-.64-.67-.95-1.02-3.01-3.5-4.67-7.88-4.67-12.52 0-4.66 1.43-9.09 4.22-12.8 1.99-2.65 4.46-4.84 7.28-6.56 2.68-1.63 5.6-2.78 8.65-3.48 2.62-.6 5.3-.92 7.98-.92 2.28 0 4.55.09 6.82.31 1.78.17 3.56.38 5.33.61 1.48.2 2.97.36 4.46.5 1.42.14 2.87.18 4.31.18 2.48 0 5.09-.09 7.55-.47 2.67-.42 5.49-.81 8.18-.81 6.38 0 11.88 3.66 14.82 9.35 1.53 2.94 2.45 6.11 2.45 9.46 0 1.26-.13 2.5-.32 3.75-.2 1.28-.48 2.56-.86 3.81-.71 2.79-1.4 5.59-2.08 8.39 2.44-.3 4.91-.45 7.38-.45 4.09 0 8.16.49 12.15 1.38 4.46 1 8.75 2.65 12.66 5.07 4.02 2.48 7.48 5.7 10.22 9.59 3.43 4.86 5.05 10.54 5.05 16.5 0 6.16-1.56 12.07-4.94 17.22-1.73 2.63-3.77 4.98-6.09 7.02 1.92 1.49 3.53 3.41 4.71 5.68 1.56 2.99 2.39 6.28 2.39 9.65 0 5.53-1.73 10.75-5.21 15.02-2.56 3.14-5.72 5.64-9.27 7.53-3.32 1.78-6.88 3-10.56 3.73-3.25.64-6.55.99-9.85.99-3.66 0-7.3-.36-10.88-1.07-3.92-.78-7.7-2.08-11.24-3.95-.61-.33-1.21-.67-1.8-1.03-.87.59-1.78 1.12-2.71 1.61-2.54 1.31-5.23 2.27-8.02 2.86-2.47.52-4.98.78-7.51.78-2.17 0-4.39-.07-6.54-.4-1.47-.22-2.92-.51-4.37-.84-.79-.18-1.79-.26-2.6-.32-2.42-.2-4.97-.19-7.4-.19-1.41 0-2.87.01-4.26.16-1.01.11-2.02.22-3.01.38-.93.15-1.87.29-2.8.43-1.46.21-2.93.3-4.4.3-2.89 0-5.63-.55-8.08-1.59-2.04.89-4.18 1.53-6.37 1.92-2.35.43-4.72.63-7.1.63-4.16 0-8.31-.24-12.44-.74-3.12-.39-6.28-.53-9.42-.53-2.05 0-4.12.08-6.16.35-2.8.37-5.64.6-8.47.6-3.9 0-7.62-1.19-10.81-3.41-.9.36-1.81.7-2.73 1.02-4.76 1.66-9.75 2.39-14.77 2.39-4.36 0-8.71-.43-12.97-1.37-4.65-1.02-9.09-2.77-13.07-5.43-2.92-1.96-5.45-4.36-7.54-7.14-3.17 2.82-6.76 5.12-10.67 6.91-5.65 2.58-11.65 4.23-17.78 5.13-5.61.82-11.26 1.26-16.93 1.26-3.99 0-7.99-.07-11.98-.25-3.47-.16-6.94-.35-10.4-.57-3.32-.22-6.64-.4-9.96-.55-3.63-.16-7.27-.22-10.91-.22-1.53 0-3.05.06-4.57.19-1.83.15-3.66.3-5.49.47-1.49.13-2.98.28-4.47.44-1.59.19-3.21.33-4.82.33-4.4 0-8.57-1.58-11.91-4.48-4.02-3.49-6.15-8.49-6.15-13.84 0-4.32 1.4-8.45 4.13-11.78.92-1.12 1.91-2.19 2.93-3.22.18-.18.34-.33.52-.5 2.87-2.63 5.41-5.66 7.22-9.14.98-1.88 1.81-3.87 2.51-5.92-2.52 3.68-5.41 7.11-8.54 10.28-4.02 4.08-8.29 7.91-12.73 11.52-4.11 3.35-8.19 6.75-12.21 10.21-2.51 2.15-5.02 4.3-7.53 6.43-2.38 2.02-4.72 4.08-7.05 6.15-.13.12-.25.22-.39.34-3.64 3.02-8.05 4.75-12.77 4.75-4.82 0-9.35-1.81-12.87-5.16-2-1.91-3.7-4.11-4.93-6.62-.15-.3-.27-.56-.4-.88-1.44-3.49-2.96-6.96-4.52-10.4-1.29-2.84-2.53-5.7-3.73-8.58-.52 1.07-1.09 2.11-1.71 3.14-3.86 6.43-8.92 11.83-15 16.13-6 4.24-12.63 7.31-19.65 9.34-6.9 1.99-14 3.03-21.18 3.03-6.39 0-12.79-.61-19.03-2.03-6.27-1.42-12.28-3.79-17.68-7.35-3.11-2.04-5.89-4.45-8.3-7.2-3.79 4.05-8.32 7.23-13.39 9.55-5.65 2.58-11.65 4.23-17.78 5.13-5.61.82-11.26 1.26-16.93 1.26-3.99 0-7.99-.06-11.98-.25-3.47-.16-6.94-.35-10.4-.57-3.32-.22-6.64-.4-9.96-.55-3.63-.16-7.27-.22-10.91-.22-1.53 0-3.05.06-4.57.19-1.83.15-3.66.31-5.48.47-1.5.13-2.99.28-4.48.44-1.59.18-3.21.33-4.82.33-4.4 0-8.57-1.57-11.92-4.48-4.01-3.49-6.14-8.49-6.14-13.84 0-4.32 1.4-8.45 4.13-11.78.92-1.12 1.91-2.19 2.93-3.22.18-.18.34-.33.52-.5 2.87-2.63 5.41-5.66 7.23-9.14 2.15-4.13 3.57-8.84 4.58-13.38 1.34-6.04 2.71-12.06 4.13-18.07 1.28-5.43 2.71-10.83 4.28-16.03 1.99-7.16 4.95-14.23 9.2-20.48 3.91-5.75 8.69-10.75 14.36-14.73 5.53-3.89 11.65-6.69 18.15-8.43C83.93 1.77 90.53 1 97.16 1c6.52 0 13.35.55 19.62 2.45 1.73.52 3.45 1.12 5.13 1.8 4.9-3.55 11.1-4.06 16.73-1.72 4.67 1.94 8.27 5.6 10.15 10.36 1.61 4.1 1.83 8.57.63 12.82-.61 2.18-1.24 4.37-1.81 6.56-.56 2.18-1.09 4.37-1.61 6.56-.47 2.17-.95 4.34-1.46 6.49-.62 2.59-1.38 5.16-2.19 7.69-.24.76-.52 1.49-.83 2.21 1.61-1.6 3.33-3.1 5.16-4.49 6.02-4.57 12.79-7.83 20-9.94 7.32-2.14 14.88-3.13 22.49-3.12 4.1-.01 8.19.38 12.24 1.08 3.81.65 7.6 1.53 11.28 2.75 3.52 1.17 6.99 2.69 10.12 4.74.47.31.94.64 1.39.99 1.74-2.28 3.97-4.23 6.63-5.72 5.1-2.88 10.92-3.84 16.69-3.85 2.21.01 4.42.1 6.63.32 1.57.16 3.14.32 4.72.48 1.59.16 3.19.31 4.78.47 1.48.14 2.99.17 4.47.17 1.42 0 3.33.02 4.73-.24 2.11-.39 4.29-.72 6.44-.72 3.89 0 7.57 1.33 10.64 3.69 4.88-3.33 10.49-4.96 16.41-4.96 7.54 0 14.46 2.72 19.86 8.1 4.04 4.01 6.6 8.92 7.68 14.32 1.1-4.46 2.3-8.88 3.59-13.17 1.99-7.16 4.95-14.22 9.2-20.48 3.91-5.75 8.69-10.75 14.36-14.73 5.53-3.89 11.65-6.69 18.15-8.43C385.6 1.77 392.2 1 398.82 1c6.53 0 13.36.55 19.63 2.45 1.73.52 3.45 1.12 5.13 1.79 4.9-3.54 11.1-4.05 16.73-1.71 4.67 1.94 8.27 5.6 10.14 10.36 1.62 4.1 1.84 8.57.64 12.82-.62 2.18-1.24 4.37-1.81 6.56-.56 2.18-1.09 4.37-1.61 6.57-.02.09-.05.19-.07.28.5-.16 1-.31 1.5-.45 2.84-.79 5.76-1.16 8.7-1.16 4.67 0 9.37.53 13.97 1.32 3.38.58 6.8.84 10.22.76.12-.01.23-.01.35-.01 1.74 0 3.49-.03 5.23-.14 2.19-.12 4.38-.18 6.57-.18 4.46 0 8.68 1.67 11.97 4.74.19.17.38.36.56.55 3.49-2.2 7.4-3.59 11.46-4.38 5.12-1.01 10.59-1.23 15.8-1.23 3.18 0 6.44.11 9.59.53 2.63.35 5.28.87 7.77 1.79.03.01.05.02.08.03zm7.21 4.45c.3.29.58.59.85.9.05-.2.11-.41.16-.61-.34-.09-.67-.18-1.01-.29zM18.91 119.17c2.83 0 11.96-1.44 19.35-1.44 16.83 0 26.74 1.6 43.25 1.6 19.35 0 43.1-4.79 43.1-26.33 0-9.74-6.61-17.88-17.31-17.88-7.7 0-15.09 4.95-15.09 13.57 0 4.63 2.83 8.77 6.6 8.77 2.83 0 4.72-.79 4.72-2.55 0-1.91-3.46-2.71-3.46-5.74 0-3.19 2.2-5.91 6.45-5.91 6.92 0 9.91 4.47 9.91 9.1 0 10.37-10.07 18.03-28.47 18.03H61.22c3.78-5.9 7.55-14.04 10.07-23.3 4.4-16.12 6.13-25.21 10.06-42.45 2.52-11.17 8.97-22.34 21.39-22.34 7.55 0 12.59 4.47 12.59 11.65 0 8.61-4.25 8.46-4.25 12.13 0 2.23 2.2 4.46 4.72 4.47 2.67 0 4.87-2.24 5.66-4.79 1.57-5.27 2.2-8.14 3.3-12.93 1.26-5.27 2.2-8.78 3.62-13.88.63-2.24-.31-4.79-2.36-5.59-2.52-.96-4.09.8-4.87 2.55-.95 2.08-1.74 3.99-2.84 3.99-.62 0-2.35-1.27-2.83-1.59-5.19-3.51-12.89-6.39-25.48-6.39-22.65 0-40.26 10.22-47.49 35.59-2.84 9.74-5.35 20.11-8.18 33.2-2.83 13.24-7.4 22.02-16.2 30.16-1.73 1.6-2.83 2.71-2.83 4.63 0 2.39 1.73 3.67 3.61 3.67zm155.71.8c23.28 0 47.66-13.73 47.65-37.35.01-11.81-8.17-19.63-18.71-19.63-6.29 0-12.74 3.2-12.74 10.06 0 2.87 1.26 4.78 3.62 4.79 2.2-.01 1.89-1.28 5.34-1.28 4.57 0 7.24 4.79 7.24 9.42 0 12.28-8.65 24.41-20.76 24.41-9.44 0-16.99-5.11-16.99-17.71 0-15.64 9.28-32.4 27.21-32.4 4.25 0 6.76 1.76 10.54 1.76 2.36 0 3.46-1.28 3.46-2.72 0-4.78-15.73-9.73-28.47-9.73-25.79 0-48.13 13.72-48.13 39.58.01 22.5 18.09 30.8 40.74 30.8zm56.15-58.41c3.62 0 3.3-4.79 9.12-4.79h1.89c-2.52 5.59-3.46 9.57-3.46 15.64 0 11.33 9.91 30.48 15.41 43.89.79 1.75 2.52 3.67 4.88 3.67 1.41 0 2.51-.48 3.62-1.44 5.19-4.63 9.43-8.14 14.78-12.77 16.36-14.04 35.86-27.45 35.86-43.08 0-8.14-5.98-13.89-13.68-13.89-6.77 0-12.59 4.15-12.59 10.05 0 4.47 2.52 7.98 6.14 7.98 1.57 0 3.14-1.11 3.14-2.87 0-1.6-1.41-2.39-1.41-3.99 0-3.03 2.04-4.15 4.24-4.15 4.09 0 6.61 2.71 6.61 6.23 0 10.37-9.91 18.19-19.19 25.85-2.04 1.76-5.66 4.63-5.66 4.63H280c-3.46-10.7-8.02-19.95-8.02-27.61 0-6.39 3.3-8.3 3.3-11.97 0-1.44-1.73-2.87-3.15-2.87-1.73 0-4.87.95-11.16.95-8.81 0-12.9-1.43-20.61-1.43-8.18 0-13.21 2.55-13.21 8.14 0 2.07 1.58 3.83 3.62 3.83zm89.81 57.61c2.83 0 11.95-1.44 19.34-1.44 16.83 0 26.74 1.6 43.25 1.6 19.35 0 43.1-4.79 43.1-26.33 0-9.74-6.61-17.88-17.3-17.88-7.71 0-15.1 4.95-15.1 13.57 0 4.63 2.83 8.77 6.6 8.77 2.83 0 4.72-.79 4.72-2.55 0-1.91-3.46-2.71-3.46-5.74 0-3.19 2.2-5.91 6.45-5.91 6.92 0 9.91 4.47 9.91 9.1 0 10.37-10.07 18.03-28.47 18.03h-26.74c3.78-5.9 7.55-14.04 10.07-23.3 4.4-16.12 6.13-25.21 10.07-42.45 2.51-11.17 8.96-22.34 21.39-22.34 7.55 0 12.58 4.47 12.58 11.65 0 8.61-4.25 8.46-4.25 12.13 0 2.23 2.2 4.46 4.72 4.46 2.68.01 4.88-2.23 5.66-4.78 1.58-5.27 2.2-8.14 3.31-12.93 1.25-5.27 2.2-8.78 3.61-13.88.63-2.24-.31-4.79-2.36-5.59-2.51-.96-4.09.8-4.87 2.55-.95 2.08-1.73 4-2.83 3.99-.63 0-2.36-1.27-2.83-1.59-5.19-3.51-12.9-6.39-25.48-6.39-22.65 0-40.27 10.22-47.5 35.59-2.83 9.74-5.35 20.11-8.18 33.2-2.83 13.24-7.39 22.02-16.2 30.16-1.73 1.6-2.83 2.71-2.83 4.63 0 2.39 1.73 3.67 3.62 3.67zm215-10.53c-3.94 0-3.93 4.31-9.28 4.3h-5.98c.79-1.27 1.42-2.87 1.73-4.3 3.46-13.25 5.98-24.1 9.75-38.31 1.58-5.74 3.93-8.93 7.55-11.01 1.89-1.12 2.83-2.07 2.83-3.99 0-1.75-2.83-4.31-15.41-4.31-21.71 0-24.38 4.63-28.47 20.27-1.88 7.34-3.62 13.73-5.82 20.43-2.36 7.34-7.39 12.13-13.99 12.13-4.88 0-6.45-3.03-6.45-8.78 0-9.26 8.33-23.94 15.41-36.22.94-1.6 2.67-3.04 2.67-4.79 0-1.28-1.57-2.72-3.14-2.72-3.93 0-7.4.32-11.8.32-8.49.16-17.77-2.07-24.53-2.07-6.61 0-13.37 3.35-13.37 8.62 0 2.39 1.57 3.67 3.14 3.67 3.94 0 3.62-4.31 10.38-4.31.79 0 2.52.48 2.52.48-2.36 1.59-16.83 23.93-16.83 41.97 0 15 11.64 19.95 25.64 19.95 14.47 0 25.79-10.7 25.79-10.7l.32.32c-.63 1.12-2.05 5.11-2.05 6.39 0 2.55 2.2 3.99 4.25 3.99 3.93 0 8.8-.96 14.62-.96 7.87 0 14.63 1.28 21.87 1.28 6.13 0 12.58-2.08 12.58-7.98 0-2.08-2.2-3.67-3.93-3.67zm21.07-79.48c3.3 0 4.88-5.11 10.23-5.11h5.18c-6.92 27.61-12.73 52.19-16.98 69.75-3.77 15.32-10.7 19.78-10.69 22.66 0 1.75 1.1 2.87 4.08 2.87 3.31 0 5.19-1.28 14.47-1.28 15.1 0 13.21 1.76 20.92 1.76 5.82 0 13.53-2.55 13.53-8.3 0-2.07-1.42-4.63-3.62-4.63-3.15 0-4.09 4.95-8.49 4.95h-2.52c1.1-.96 2.05-3.03 2.52-4.95 2.83-9.89 4.4-15.8 6.92-26.01 1.73-7.02 7.7-14.69 16.67-14.68 5.19-.01 8.49 3.19 8.49 7.5 0 5.74-4.4 9.09-11.64 9.09-3.14 0-5.5-1.11-8.49-1.11-2.05 0-3.93 1.43-3.93 3.51 0 1.27.63 2.23 1.57 2.87 4.09 3.35 5.51 8.14 7.24 18.35 1.73 10.05 13.05 14.21 23.9 14.21 9.28 0 20.45-3.83 20.45-12.61 0-1.92-.94-4.15-2.83-4.15-2.52 0-3.46 3.67-5.98 3.67-1.73 0-2.67-1.12-3.3-2.87-2.99-8.46-5.66-12.13-10.7-15.8v-.48c11.64 0 26.74-5.75 26.74-19.95 0-12.29-13.68-17.87-25.64-17.87-11.32 0-19.66 4.15-27.68 10.53l-.47-.16c3.15-13.57 5.19-22.03 8.97-37.03.31-1.27.63-2.87.63-3.51 0-1.43-1.26-4.15-2.84-4.15-2.51 0-8.18 1.28-15.72 1.28-8.18 0-13.06-1.6-20.92-1.6-6.29 0-13.69 3.19-13.68 9.1-.01 2.07 1.72 4.15 3.61 4.15z" style="fill:#fd681e"/>
</svg>
